<svg width="14" height="14" viewBox="0 0 14 14" fill="none" xmlns="http://www.w3.org/2000/svg">
<mask id="path-1-inside-1" fill="white">
<path fill-rule="evenodd" clip-rule="evenodd" d="M6.63723 8.29627C4.34628 8.29627 2.4891 6.43909 2.4891 4.14813C2.4891 1.85718 4.34628 0 6.63723 0C8.92818 0 10.7854 1.85718 10.7854 4.14813C10.7854 6.43909 8.92818 8.29627 6.63723 8.29627ZM13.2548 12.7111C12.8746 10.747 11.6416 9.08698 9.95653 8.13179C9.0572 8.88195 7.89993 9.33329 6.63724 9.33329C5.37454 9.33329 4.21726 8.88194 3.31792 8.13176C1.63287 9.08695 0.399849 10.747 0.019557 12.7111C-0.116528 13.414 0.476854 13.9999 1.19278 13.9999H12.0816C12.7976 13.9999 13.3909 13.414 13.2548 12.7111Z"/>
</mask>
<path d="M9.95653 8.13179L9.31599 7.36387L9.84752 6.9205L10.4497 7.26184L9.95653 8.13179ZM13.2548 12.7111L12.2731 12.9012L13.2548 12.7111ZM3.31792 8.13176L2.82479 7.26181L3.42694 6.92048L3.95848 7.36385L3.31792 8.13176ZM0.019557 12.7111L-0.962211 12.5211V12.5211L0.019557 12.7111ZM3.4891 4.14813C3.4891 5.8868 4.89856 7.29627 6.63723 7.29627V9.29627C3.79399 9.29627 1.4891 6.99137 1.4891 4.14813H3.4891ZM6.63723 1C4.89856 1 3.4891 2.40947 3.4891 4.14813H1.4891C1.4891 1.3049 3.79399 -1 6.63723 -1V1ZM9.78537 4.14813C9.78537 2.40947 8.3759 1 6.63723 1V-1C9.48047 -1 11.7854 1.3049 11.7854 4.14813H9.78537ZM6.63723 7.29627C8.3759 7.29627 9.78537 5.8868 9.78537 4.14813H11.7854C11.7854 6.99137 9.48047 9.29627 6.63723 9.29627V7.29627ZM10.4497 7.26184C12.3828 8.35768 13.7994 10.2626 14.2366 12.5211L12.2731 12.9012C11.9498 11.2314 10.9003 9.81629 9.46338 9.00174L10.4497 7.26184ZM6.63724 8.33329C7.65727 8.33329 8.58974 7.96965 9.31599 7.36387L10.5971 8.89971C9.52467 9.79424 8.14259 10.3333 6.63724 10.3333V8.33329ZM3.95848 7.36385C4.68473 7.96965 5.6172 8.33329 6.63724 8.33329V10.3333C5.13188 10.3333 3.74979 9.79422 2.67737 8.89968L3.95848 7.36385ZM-0.962211 12.5211C-0.524941 10.2626 0.891619 8.35765 2.82479 7.26181L3.81106 9.00172C2.37412 9.81626 1.32464 11.2313 1.00132 12.9012L-0.962211 12.5211ZM1.19278 14.9999C-0.00988579 14.9999 -1.2433 13.9728 -0.962211 12.5211L1.00132 12.9012C0.999763 12.9093 1 12.913 1.00001 12.9132C1.00003 12.9135 1.00004 12.9134 1 12.9132C0.999962 12.913 0.999921 12.9129 0.999927 12.9129C0.999935 12.9129 1.00005 12.9133 1.00039 12.914C1.00073 12.9148 1.00134 12.9161 1.00235 12.9178C1.00438 12.9212 1.00811 12.9266 1.01445 12.9333C1.04281 12.9634 1.10517 12.9999 1.19278 12.9999V14.9999ZM12.0816 14.9999H1.19278V12.9999H12.0816V14.9999ZM14.2366 12.5211C14.5177 13.9728 13.2843 14.9999 12.0816 14.9999V12.9999C12.1692 12.9999 12.2316 12.9634 12.26 12.9333C12.2663 12.9266 12.27 12.9212 12.2721 12.9178C12.2731 12.9161 12.2737 12.9148 12.274 12.914C12.2744 12.9133 12.2745 12.9129 12.2745 12.9129C12.2745 12.9129 12.2744 12.913 12.2744 12.9132C12.2744 12.9135 12.2744 12.9135 12.2744 12.9132C12.2744 12.913 12.2746 12.9093 12.2731 12.9012L14.2366 12.5211Z" fill="#238AC4" fill-opacity="0.6" mask="url(#path-1-inside-1)"/>
</svg>
